<svg width="25" height="24" viewBox="0 0 25 24" fill="none" xmlns="http://www.w3.org/2000/svg">
<path d="M12.5 21C14.4969 20.9997 16.437 20.3353 18.0149 19.1114C19.5927 17.8874 20.7187 16.1735 21.2156 14.2394C21.7125 12.3053 21.552 10.2608 20.7594 8.42795C19.9669 6.59506 18.5872 5.0778 16.8377 4.11506C15.0882 3.15231 13.0682 2.79875 11.0957 3.11004C9.1232 3.42132 7.31024 4.37978 5.94225 5.83452C4.57425 7.28925 3.72892 9.15764 3.53932 11.1455C3.34973 13.1334 3.82665 15.1279 4.895 16.815L3.5 21L7.685 19.605C9.12458 20.5187 10.795 21.0026 12.5 21Z" stroke="#6A6C6A" stroke-width="2" stroke-linecap="round" stroke-linejoin="round"/>
</svg>
