<svg width="25" height="24" viewBox="0 0 25 24" fill="none" xmlns="http://www.w3.org/2000/svg">
<path d="M4.5 22C3.95 22 3.47933 21.8043 3.088 21.413C2.69667 21.0217 2.50067 20.5507 2.5 20V8C2.5 7.45 2.696 6.97933 3.088 6.588C3.48 6.19667 3.95067 6.00067 4.5 6H8.5V4C8.5 3.45 8.696 2.97933 9.088 2.588C9.48 2.19667 9.95067 2.00067 10.5 2H14.5C15.05 2 15.521 2.196 15.913 2.588C16.305 2.98 16.5007 3.45067 16.5 4V6H20.5C21.05 6 21.521 6.196 21.913 6.588C22.305 6.98 22.5007 7.45067 22.5 8V20C22.5 20.55 22.3043 21.021 21.913 21.413C21.5217 21.805 21.0507 22.0007 20.5 22H4.5ZM4.5 20H20.5V8H4.5V20ZM10.5 6H14.5V4H10.5V6ZM11.5 15V18H13.5V15H16.5V13H13.5V10H11.5V13H8.5V15H11.5Z" fill="#6A6C6A"/>
</svg>
