<svg width="25" height="24" viewBox="0 0 25 24" fill="none" xmlns="http://www.w3.org/2000/svg">
<path d="M7.016 14.323L5.526 20.775C5.434 21.174 5.594 21.589 5.932 21.822C6.103 21.94 6.301 22 6.5 22C6.693 22 6.887 21.944 7.055 21.832L12.5 18.202L17.945 21.832C18.293 22.064 18.75 22.055 19.09 21.808C19.428 21.561 19.577 21.128 19.462 20.726L17.633 14.326L22.169 10.244C22.466 9.976 22.575 9.558 22.447 9.18C22.318 8.802 21.977 8.536 21.579 8.504L15.878 8.05L13.411 2.589C13.25 2.23 12.893 2 12.5 2C12.107 2 11.75 2.23 11.589 2.589L9.122 8.05L3.421 8.503C3.029 8.534 2.692 8.791 2.56 9.16C2.426 9.529 2.522 9.942 2.802 10.216L7.016 14.323ZM9.869 9.997C10.232 9.968 10.552 9.744 10.701 9.411L12.5 5.43L14.299 9.411C14.448 9.744 14.768 9.968 15.131 9.997L19.103 10.312L15.832 13.256C15.548 13.512 15.435 13.906 15.539 14.274L16.792 18.659L13.056 16.168C12.72 15.943 12.283 15.943 11.947 16.168L8.043 18.771L9.093 14.225C9.171 13.885 9.067 13.528 8.817 13.285L5.779 10.323L9.869 9.997Z" fill="#6A6C6A"/>
</svg>
