<svg width="25" height="24" viewBox="0 0 25 24" fill="none" xmlns="http://www.w3.org/2000/svg">
<path d="M20.4 12.66C20.2397 12.4775 20.1513 12.2429 20.1513 12C20.1513 11.7571 20.2397 11.5225 20.4 11.34L21.68 9.90002C21.821 9.74269 21.9086 9.54472 21.9302 9.33452C21.9517 9.12433 21.9062 8.9127 21.8 8.73002L19.8 5.27002C19.6949 5.08754 19.5349 4.94289 19.3427 4.8567C19.1506 4.77051 18.9362 4.74718 18.73 4.79002L16.85 5.17002C16.6108 5.21945 16.3617 5.17961 16.1499 5.05802C15.938 4.93643 15.778 4.7415 15.7 4.51002L15.09 2.68002C15.0229 2.4814 14.8951 2.30888 14.7246 2.18686C14.5541 2.06484 14.3496 1.99948 14.14 2.00002H10.14C9.92192 1.98864 9.70612 2.04894 9.52555 2.17173C9.34498 2.29452 9.20957 2.47304 9.13999 2.68002L8.57999 4.51002C8.50199 4.7415 8.34196 4.93643 8.1301 5.05802C7.91824 5.17961 7.6692 5.21945 7.42999 5.17002L5.49999 4.79002C5.30454 4.7624 5.10529 4.79324 4.92734 4.87866C4.74938 4.96407 4.60069 5.10025 4.49999 5.27002L2.49999 8.73002C2.39115 8.91067 2.34221 9.1211 2.36017 9.33124C2.37813 9.54138 2.46207 9.74046 2.59999 9.90002L3.86999 11.34C4.03031 11.5225 4.11872 11.7571 4.11872 12C4.11872 12.2429 4.03031 12.4775 3.86999 12.66L2.59999 14.1C2.46207 14.2596 2.37813 14.4587 2.36017 14.6688C2.34221 14.8789 2.39115 15.0894 2.49999 15.27L4.49999 18.73C4.60509 18.9125 4.76511 19.0571 4.95724 19.1433C5.14937 19.2295 5.36381 19.2529 5.56999 19.21L7.44999 18.83C7.6892 18.7806 7.93824 18.8204 8.1501 18.942C8.36196 19.0636 8.52199 19.2585 8.59999 19.49L9.20999 21.32C9.27957 21.527 9.41498 21.7055 9.59555 21.8283C9.77612 21.9511 9.99192 22.0114 10.21 22H14.21C14.4196 22.0006 14.6241 21.9352 14.7946 21.8132C14.9651 21.6912 15.0929 21.5186 15.16 21.32L15.77 19.49C15.848 19.2585 16.008 19.0636 16.2199 18.942C16.4317 18.8204 16.6808 18.7806 16.92 18.83L18.8 19.21C19.0062 19.2529 19.2206 19.2295 19.4127 19.1433C19.6049 19.0571 19.7649 18.9125 19.87 18.73L21.87 15.27C21.9762 15.0873 22.0217 14.8757 22.0002 14.6655C21.9786 14.4553 21.891 14.2573 21.75 14.1L20.4 12.66ZM18.91 14L19.71 14.9L18.43 17.12L17.25 16.88C16.5298 16.7328 15.7806 16.8551 15.1446 17.2238C14.5086 17.5925 14.0301 18.1819 13.8 18.88L13.42 20H10.86L10.5 18.86C10.2698 18.1619 9.79137 17.5725 9.15539 17.2038C8.51942 16.8351 7.77021 16.7128 7.04999 16.86L5.86999 17.1L4.56999 14.89L5.36999 13.99C5.86194 13.44 6.13392 12.7279 6.13392 11.99C6.13392 11.2521 5.86194 10.54 5.36999 9.99002L4.56999 9.09002L5.84999 6.89002L7.02999 7.13002C7.75021 7.27724 8.49942 7.1549 9.13539 6.78622C9.77137 6.41753 10.2498 5.82818 10.48 5.13002L10.86 4.00002H13.42L13.8 5.14002C14.0301 5.83818 14.5086 6.42753 15.1446 6.79622C15.7806 7.1649 16.5298 7.28724 17.25 7.14002L18.43 6.90002L19.71 9.12002L18.91 10.02C18.4236 10.5688 18.155 11.2767 18.155 12.01C18.155 12.7433 18.4236 13.4513 18.91 14ZM12.14 8.00002C11.3489 8.00002 10.5755 8.23461 9.91771 8.67414C9.25991 9.11366 8.74722 9.73838 8.44447 10.4693C8.14172 11.2002 8.06251 12.0045 8.21685 12.7804C8.37119 13.5563 8.75215 14.269 9.31156 14.8284C9.87097 15.3879 10.5837 15.7688 11.3596 15.9232C12.1356 16.0775 12.9398 15.9983 13.6707 15.6955C14.4016 15.3928 15.0263 14.8801 15.4659 14.2223C15.9054 13.5645 16.14 12.7911 16.14 12C16.14 10.9392 15.7186 9.92174 14.9684 9.17159C14.2183 8.42144 13.2009 8.00002 12.14 8.00002ZM12.14 14C11.7444 14 11.3577 13.8827 11.0288 13.663C10.6999 13.4432 10.4436 13.1308 10.2922 12.7654C10.1409 12.3999 10.1012 11.9978 10.1784 11.6098C10.2556 11.2219 10.4461 10.8655 10.7258 10.5858C11.0055 10.3061 11.3618 10.1156 11.7498 10.0384C12.1378 9.96128 12.5399 10.0009 12.9054 10.1523C13.2708 10.3036 13.5832 10.56 13.8029 10.8889C14.0227 11.2178 14.14 11.6045 14.14 12C14.14 12.5304 13.9293 13.0392 13.5542 13.4142C13.1791 13.7893 12.6704 14 12.14 14Z" fill="#6A6C6A"/>
</svg>
