<svg width="21" height="20" viewBox="0 0 21 20" fill="none" xmlns="http://www.w3.org/2000/svg">
<path d="M1.5 12H3.5V19C3.5 19.553 3.948 20 4.5 20H16.5C17.053 20 17.5 19.553 17.5 19V12H19.5C19.895 12 20.253 11.768 20.413 11.407C20.574 11.046 20.508 10.624 20.243 10.331L11.243 0.331026C10.864 -0.0909736 10.136 -0.0909736 9.757 0.331026L0.757 10.331C0.493 10.624 0.426 11.046 0.586 11.407C0.747 11.768 1.105 12 1.5 12ZM7.449 11.684C7.48 11.779 8.262 14 10.5 14C12.769 14 13.542 11.713 13.55 11.689L15.45 12.31C15.401 12.461 14.203 16 10.5 16C6.797 16 5.599 12.461 5.55 12.311L7.449 11.684Z" fill="#6A6C6A"/>
</svg>
