<svg width="20" height="20" viewBox="0 0 20 20" fill="none" xmlns="http://www.w3.org/2000/svg">
<path d="M10.001 7.8C9.71201 7.8 9.4258 7.85693 9.15876 7.96754C8.89172 8.07816 8.64909 8.24028 8.44471 8.44466C8.24033 8.64904 8.0782 8.89168 7.96759 9.15872C7.85698 9.42575 7.80005 9.71196 7.80005 10.001C7.80005 10.29 7.85698 10.5763 7.96759 10.8433C8.0782 11.1103 8.24033 11.353 8.44471 11.5573C8.64909 11.7617 8.89172 11.9239 9.15876 12.0345C9.4258 12.1451 9.71201 12.202 10.001 12.202C10.5848 12.2019 11.1446 11.9699 11.5572 11.557C11.9699 11.1441 12.2017 10.5842 12.2015 10.0005C12.2014 9.41676 11.9694 8.85698 11.5565 8.44431C11.1437 8.03163 10.5838 7.79987 10 7.8H10.001ZM10.001 5.2C10.29 5.19987 10.576 5.14284 10.8429 5.03216C11.1097 4.92147 11.3522 4.75931 11.5564 4.55493C11.7606 4.35055 11.9225 4.10795 12.033 3.84098C12.1434 3.57402 12.2002 3.28791 12.2 2.999C12.1999 2.7101 12.1429 2.42404 12.0322 2.15718C11.9215 1.89031 11.7594 1.64786 11.555 1.44366C11.3506 1.23947 11.108 1.07752 10.841 0.967086C10.5741 0.856647 10.288 0.799872 9.99905 0.800003C9.41557 0.800269 8.8561 1.03231 8.44371 1.44508C8.03131 1.85784 7.79978 2.41753 7.80005 3.001C7.80031 3.58448 8.03235 4.14395 8.44512 4.55635C8.85789 4.96874 9.41757 5.20027 10.001 5.2ZM10.001 14.8C9.41731 14.8 8.85747 15.0319 8.44471 15.4447C8.03194 15.8574 7.80005 16.4173 7.80005 17.001C7.80005 17.5847 8.03194 18.1446 8.44471 18.5573C8.85747 18.9701 9.41731 19.202 10.001 19.202C10.5848 19.202 11.1446 18.9701 11.5574 18.5573C11.9702 18.1446 12.202 17.5847 12.202 17.001C12.202 16.4173 11.9702 15.8574 11.5574 15.4447C11.1446 15.0319 10.5848 14.8 10.001 14.8Z" fill="#2483F0"/>
</svg>
