<svg width="24" height="25" viewBox="0 0 24 25" fill="none" xmlns="http://www.w3.org/2000/svg">
<path d="M19.7416 9.24038C19.7418 8.70104 19.58 8.17408 19.2772 7.72774C18.9744 7.28141 18.5446 6.93629 18.0433 6.73706C18.2565 6.24184 18.3162 5.69402 18.2147 5.16449C18.1132 4.63496 17.8551 4.14808 17.4739 3.76683C17.0926 3.38557 16.6058 3.12749 16.0762 3.02597C15.5467 2.92445 14.9989 2.98416 14.5037 3.19737C14.3042 2.69649 13.9591 2.26697 13.5129 1.96436C13.0667 1.66176 12.54 1.5 12.0008 1.5C11.4616 1.5 10.9349 1.66176 10.4888 1.96436C10.0426 2.26697 9.69741 2.69649 9.49797 3.19737C9.00261 2.98326 8.45438 2.92285 7.92429 3.02397C7.3942 3.12509 6.90669 3.38307 6.52495 3.76451C6.1432 4.14594 5.88482 4.63323 5.78326 5.16323C5.68171 5.69325 5.74167 6.24153 5.95538 6.73706C5.45411 6.93613 5.02416 7.28113 4.72124 7.72738C4.4183 8.17362 4.25635 8.70055 4.25635 9.2399C4.25635 9.77925 4.4183 10.3062 4.72124 10.7525C5.02416 11.1986 5.45411 11.5437 5.95538 11.7428C5.74216 12.238 5.68245 12.7858 5.78398 13.3153C5.88549 13.8448 6.14358 14.3317 6.52483 14.713C6.90608 15.0942 7.39297 15.3523 7.9225 15.4538C8.45203 15.5553 8.99984 15.4956 9.49506 15.2824C9.69414 15.7837 10.0391 16.2136 10.4854 16.5166C10.9316 16.8195 11.4585 16.9815 11.9979 16.9815C12.5373 16.9815 13.0642 16.8195 13.5104 16.5166C13.9566 16.2136 14.3017 15.7837 14.5007 15.2824C14.996 15.4956 15.5438 15.5553 16.0733 15.4538C16.6029 15.3523 17.0897 15.0942 17.471 14.713C17.8522 14.3317 18.1103 13.8448 18.2118 13.3153C18.3133 12.7858 18.2536 12.238 18.0404 11.7428C18.5422 11.5443 18.9727 11.1995 19.276 10.7533C19.5794 10.3071 19.7416 9.77996 19.7416 9.24038Z" fill="#5EEDFF"/>
<path d="M17.4715 3.76635C17.09 3.3852 16.6031 3.12723 16.0735 3.0258C15.5439 2.92436 14.996 2.98413 14.5007 3.19737C14.3013 2.69649 13.9562 2.26697 13.51 1.96436C13.0638 1.66176 12.5371 1.5 11.9979 1.5C11.4587 1.5 10.932 1.66176 10.4858 1.96436C10.0397 2.26697 9.69451 2.69649 9.49506 3.19737C8.99984 2.98416 8.45203 2.92445 7.9225 3.02597C7.39297 3.12749 6.90608 3.38557 6.52483 3.76683C6.14358 4.14808 5.88549 4.63496 5.78398 5.16449C5.68245 5.69402 5.74216 6.24184 5.95538 6.73706C5.45411 6.93613 5.02416 7.28113 4.72124 7.72738C4.4183 8.17362 4.25635 8.70055 4.25635 9.2399C4.25635 9.77925 4.4183 10.3062 4.72124 10.7525C5.02416 11.1986 5.45411 11.5437 5.95538 11.7428C5.74174 12.2379 5.68175 12.7859 5.7832 13.3156C5.88465 13.8453 6.14286 14.3322 6.52436 14.7135L17.4715 3.76635Z" fill="#FFF9BF"/>
<path d="M19.7039 15.1731L22.7308 20.4149C22.8643 20.6452 22.7579 20.802 22.4956 20.7536L19.2462 20.2039L18.1199 23.3004C18.0289 23.5501 17.8431 23.5675 17.7077 23.3391L14.8047 18.4302" fill="#FF808C"/>
<path d="M19.7039 15.1731L22.7308 20.4149C22.8643 20.6452 22.7579 20.802 22.4956 20.7536L19.2462 20.2039L18.1199 23.3004C18.0289 23.5501 17.8431 23.5675 17.7077 23.3391L14.8047 18.4302" stroke="#191919" stroke-linecap="round" stroke-linejoin="round"/>
<path d="M4.29643 15.1731L1.2696 20.4149C1.13607 20.6452 1.24251 20.802 1.50475 20.7536L4.75414 20.2039L5.88146 23.3004C5.97242 23.5511 6.15821 23.5675 6.29368 23.3391L9.19665 18.436" fill="#FF808C"/>
<path d="M4.29643 15.1731L1.2696 20.4149C1.13607 20.6452 1.24251 20.802 1.50475 20.7536L4.75414 20.2039L5.88146 23.3004C5.97242 23.5511 6.15821 23.5675 6.29368 23.3391L9.19665 18.436" stroke="#191919" stroke-linecap="round" stroke-linejoin="round"/>
<path d="M12.4841 11.1757V6.82123C12.4841 6.73137 12.4591 6.6433 12.4119 6.56686C12.3646 6.49044 12.2971 6.42866 12.2167 6.38849C12.1364 6.3483 12.0464 6.33129 11.9569 6.33936C11.8674 6.34743 11.7819 6.38026 11.71 6.43417L10.5488 7.30506" stroke="#191919" stroke-linecap="round" stroke-linejoin="round"/>
<path d="M11.5137 11.1756H13.449" stroke="#191919" stroke-linecap="round" stroke-linejoin="round"/>
<path d="M19.7416 9.24038C19.7418 8.70104 19.58 8.17408 19.2772 7.72774C18.9744 7.28141 18.5446 6.93629 18.0433 6.73706C18.2565 6.24184 18.3162 5.69402 18.2147 5.16449C18.1132 4.63496 17.8551 4.14808 17.4739 3.76683C17.0926 3.38557 16.6058 3.12749 16.0762 3.02597C15.5467 2.92445 14.9989 2.98416 14.5037 3.19737C14.3042 2.69649 13.9591 2.26697 13.5129 1.96436C13.0667 1.66176 12.54 1.5 12.0008 1.5C11.4616 1.5 10.9349 1.66176 10.4888 1.96436C10.0426 2.26697 9.69741 2.69649 9.49797 3.19737C9.00261 2.98326 8.45438 2.92285 7.92429 3.02397C7.3942 3.12509 6.90669 3.38307 6.52495 3.76451C6.1432 4.14594 5.88482 4.63323 5.78326 5.16323C5.68171 5.69325 5.74167 6.24153 5.95538 6.73706C5.45411 6.93613 5.02416 7.28113 4.72124 7.72738C4.4183 8.17362 4.25635 8.70055 4.25635 9.2399C4.25635 9.77925 4.4183 10.3062 4.72124 10.7525C5.02416 11.1986 5.45411 11.5437 5.95538 11.7428C5.74216 12.238 5.68245 12.7858 5.78398 13.3153C5.88549 13.8448 6.14358 14.3317 6.52483 14.713C6.90608 15.0942 7.39297 15.3523 7.9225 15.4538C8.45203 15.5553 8.99984 15.4956 9.49506 15.2824C9.69414 15.7837 10.0391 16.2136 10.4854 16.5166C10.9316 16.8195 11.4585 16.9815 11.9979 16.9815C12.5373 16.9815 13.0642 16.8195 13.5104 16.5166C13.9566 16.2136 14.3017 15.7837 14.5007 15.2824C14.996 15.4956 15.5438 15.5553 16.0733 15.4538C16.6029 15.3523 17.0897 15.0942 17.471 14.713C17.8522 14.3317 18.1103 13.8448 18.2118 13.3153C18.3133 12.7858 18.2536 12.238 18.0404 11.7428C18.5422 11.5443 18.9727 11.1995 19.276 10.7533C19.5794 10.3071 19.7416 9.77996 19.7416 9.24038Z" stroke="#191919" stroke-linecap="round" stroke-linejoin="round"/>
</svg>
