<svg width="27" height="22" viewBox="0 0 27 22" fill="none" xmlns="http://www.w3.org/2000/svg">
<path fill-rule="evenodd" clip-rule="evenodd" d="M22.7413 1.06102C23.2003 0.605995 23.82 0.349907 24.4663 0.348123C25.1127 0.34634 25.7338 0.599005 26.1953 1.05149C26.6568 1.50398 26.9217 2.11994 26.9328 2.76619C26.9438 3.41244 26.7 4.03707 26.2542 4.50502L13.1604 20.8722C12.9354 21.1146 12.6637 21.3091 12.3618 21.4441C12.0599 21.5792 11.7338 21.6519 11.4031 21.658C11.0724 21.6642 10.7439 21.6035 10.4372 21.4798C10.1305 21.356 9.85185 21.1717 9.61799 20.9378L0.942387 12.2589C0.700695 12.0337 0.50684 11.7621 0.372386 11.4604C0.237932 11.1586 0.165635 10.8329 0.159807 10.5026C0.153979 10.1723 0.21474 9.84418 0.338465 9.53786C0.46219 9.23155 0.646345 8.9533 0.879942 8.7197C1.11354 8.4861 1.39179 8.30195 1.69811 8.17822C2.00442 8.0545 2.33252 7.99374 2.66282 7.99956C2.99313 8.00539 3.31888 8.07769 3.62063 8.21214C3.92239 8.3466 4.19398 8.54045 4.41919 8.78214L11.2875 15.6472L22.679 1.13318C22.6993 1.10778 22.7212 1.08367 22.7446 1.06102H22.7413Z" fill="white"/>
</svg>
