<svg width="80" height="80" viewBox="0 0 80 80" fill="none" xmlns="http://www.w3.org/2000/svg">
<path d="M32.3459 6.49982C37.2465 4.46994 42.7527 4.46994 47.6532 6.49982L58.2755 10.8997C63.1761 12.9296 67.0695 16.8231 69.0994 21.7236L73.4993 32.3459C75.5292 37.2465 75.5292 42.7527 73.4993 47.6532L69.0994 58.2755C67.0696 63.1761 63.1761 67.0695 58.2755 69.0994L47.6532 73.4993C42.7527 75.5292 37.2465 75.5292 32.3459 73.4993L21.7236 69.0994C16.8231 67.0696 12.9296 63.1761 10.8997 58.2755L6.49982 47.6532C4.46994 42.7527 4.46994 37.2465 6.49982 32.3459L10.8997 21.7236C12.9296 16.8231 16.8231 12.9296 21.7236 10.8997L32.3459 6.49982Z" fill="#94B8FF" stroke="#2483F0" stroke-width="8"/>
</svg>
