<svg width="375" height="204" viewBox="0 0 375 204" fill="none" xmlns="http://www.w3.org/2000/svg">
<path fill-rule="evenodd" clip-rule="evenodd" d="M0 26.0381L0 29.9809C37.9546 45.7446 90.0593 51.1394 154.937 46.5315C203.847 43.0576 245.444 44.3468 279.146 51.2148C312.849 58.0827 338.677 70.5335 356.025 89.3983C361.797 95.6744 366.627 102.657 370.495 110.374C372.11 112.92 373.612 115.557 375 118.288V107.301C370.681 97.4874 364.922 88.8168 357.766 81.2322C340.274 62.6946 314.399 50.6106 280.673 44.1881C246.946 37.7656 205.386 37.0085 156.549 41.1087C91.0525 46.6075 38.3731 41.7391 0 26.0381ZM375 106.073V0H0L0 25.4974C38.2715 41.2122 90.9145 46.1174 156.507 40.6105C205.368 36.5082 246.978 37.2627 280.766 43.6969C314.554 50.1311 340.54 62.2488 358.129 80.8891C365.079 88.2542 370.714 96.6324 375 106.073ZM0 35.1233V30.5225C38.0534 46.2721 90.1918 51.6313 154.973 47.0302C203.859 43.558 245.405 44.8493 279.047 51.7047C312.688 58.5602 338.405 70.9758 355.657 89.7367C360.288 94.772 364.31 100.267 367.713 106.237C365.148 102.632 362.336 99.2246 359.283 96.0111C341.251 77.036 314.786 64.8516 280.481 58.5901C267.381 56.199 253.135 54.6711 237.775 53.959C212.649 51.6896 184.343 51.5372 153.014 53.2902C89.0201 56.8709 37.5747 50.9254 0 35.1233ZM358.925 96.3608C363.088 100.742 366.8 105.488 370.052 110.608C371.929 114.356 373.58 118.279 375 122.38V141.613C371.136 124.992 363.905 110.904 353.436 99.1706C336.373 80.0475 310.734 67.2105 277.139 59.8375C268.342 57.9069 258.998 56.3507 249.119 55.1542C260.178 55.9955 270.607 57.2994 280.393 59.0857C314.636 65.336 340.99 77.4876 358.925 96.3608ZM372.603 114.87C373.46 116.828 374.259 118.831 375 120.878V119.401C374.237 117.862 373.438 116.351 372.603 114.87ZM0 35.6659V40.8811C20.7088 49.707 45.6258 55.6468 74.5325 58.7511C98.6044 60.1969 125.32 59.505 154.556 56.7116C180.489 54.2339 204.417 53.1495 226.258 53.5812C204.11 52.1873 179.673 52.2993 153.042 53.7894C89.1459 57.3646 37.67 51.4538 0 35.6659ZM237.82 54.4651C212.969 53.3088 185.186 54.2907 154.602 57.2129C129.584 59.6032 106.399 60.4569 85.1272 59.7475C105.213 61.3776 127.092 61.7276 150.697 60.813C199.694 58.9145 241.227 61.5413 274.691 69.4901C308.156 77.4388 333.57 90.7141 350.302 110.127C369.788 132.735 377.463 163.62 372.428 204H375V143.926C371.291 126.413 363.925 111.677 353.063 99.5035C336.094 80.4857 310.566 67.6855 277.031 60.3258C264.983 57.6817 251.904 55.7403 237.82 54.4651ZM0 44.4342V41.4247C18.1323 49.1266 39.4597 54.6222 63.8296 57.9516C39.6282 55.7772 18.3056 51.285 0 44.4342ZM0 44.9714C20.9952 52.8034 45.9224 57.5418 74.5654 59.2574C97.4953 61.7147 122.917 62.3897 150.717 61.3125C199.689 59.4151 241.173 62.0423 274.576 69.9766C307.979 77.9108 333.283 91.1474 349.923 110.454C369.299 132.934 376.962 163.691 371.924 204H368.28C371.054 169.716 363.593 142.728 346.56 122.176C330.207 102.443 305.054 88.6789 271.749 80.085C238.445 71.4911 196.97 68.0621 147.946 69.0135C86.3143 70.2094 36.6035 63.023 0 47.2035V44.9714ZM0 47.7484V54.0335C35.9975 69.8181 84.604 77.6684 144.715 77.7935C193.748 77.8954 235.139 82.2145 268.251 91.5218C301.363 100.829 326.215 115.13 342.141 135.21C356.488 153.298 363.572 176.046 362.954 204H367.779C370.552 169.797 363.109 142.928 346.175 122.495C329.912 102.871 304.868 89.1474 271.624 80.5692C238.381 71.9909 196.956 68.5625 147.956 69.5133C86.4233 70.7073 36.6899 63.5532 0 47.7484ZM0 61.3069V54.5795C36.0784 70.3492 84.7029 78.1686 144.714 78.2934C193.723 78.3954 235.064 82.7128 268.116 92.0032C301.168 101.294 325.911 115.551 341.749 135.52C356.009 153.499 363.07 176.135 362.453 204H356.098C354.882 182.466 348.422 164.268 336.972 149.109C321.525 128.659 297.018 113.774 264.135 103.687C231.252 93.5996 189.974 88.3034 140.958 87.0424C82.6228 85.5418 35.2985 77.019 0 61.3069ZM0 61.8542V68.9527C34.4943 84.5486 80.3433 93.7342 136.629 96.6363C185.597 99.1612 226.725 105.52 259.337 116.453C291.948 127.385 316.063 142.896 330.977 163.738C339.355 175.446 344.823 188.824 347.268 204H355.597C354.38 182.562 347.947 164.469 336.573 149.411C321.211 129.073 296.812 114.234 263.989 104.165C231.166 94.096 189.938 88.8026 140.945 87.5423C82.7101 86.0442 35.3732 77.5511 0 61.8542ZM0 76.8927V69.5014C34.5618 85.0816 80.4178 94.2387 136.603 97.1357C185.548 99.6593 226.625 106.014 259.178 116.927C291.73 127.839 315.738 143.302 330.571 164.029C338.882 175.644 344.319 188.924 346.76 204H335.915C333.215 194.969 329.26 186.628 324.081 178.945C309.755 157.695 286.083 141.515 253.79 129.676C221.496 117.836 180.562 110.33 131.684 106.438C77.7365 102.141 33.57 92.323 0 76.8927ZM0 77.443V85.0421C32.5083 100.251 74.7719 110.65 126.081 116.295C174.82 121.657 215.509 130.392 247.432 143.198C279.354 156.005 302.528 172.89 316.208 194.562C318.134 197.613 319.871 200.759 321.418 204H335.391C332.706 195.068 328.787 186.82 323.666 179.225C309.419 158.091 285.852 141.963 253.618 130.145C221.383 118.327 180.499 110.827 131.644 106.936C77.797 102.648 33.6296 92.8569 0 77.443ZM0 93.3101V85.594C32.5592 100.786 74.817 111.158 126.026 116.792C174.742 122.151 215.382 130.88 247.246 143.663C279.11 156.446 302.18 173.276 315.785 194.829C317.657 197.795 319.351 200.852 320.863 204H303.171C289.769 184.865 268.592 169.315 240.202 156.848C208.71 143.018 168.323 132.975 119.783 126.043C71.4181 119.136 31.2894 108.235 0 93.3101ZM0 93.8639V101.599C29.8913 116.168 67.6434 127.467 112.758 135.503C161.032 144.101 201.048 155.528 232.046 170.434C252.143 180.097 268.457 191.226 280.772 204H302.559C289.216 185.095 268.197 169.687 240.001 157.306C208.566 143.501 168.229 133.467 119.712 126.538C71.4465 119.645 31.3309 108.77 0 93.8639ZM0 109.808V102.156C29.9224 116.704 67.6542 127.976 112.671 135.995C160.921 144.589 200.888 156.006 231.83 170.884C251.708 180.442 267.853 191.425 280.076 204H254.334C245.284 196.745 234.795 190.007 222.916 183.75C192.484 167.721 152.912 154.838 104.985 144.48C63.4179 135.496 28.29 123.936 0 109.808ZM0 110.367V117.83C26.4611 131.415 58.7138 143.067 96.4523 152.767C143.942 164.974 182.985 179.38 212.774 196.575C216.964 198.994 220.971 201.469 224.794 204H253.533C244.624 196.917 234.327 190.326 222.683 184.193C192.307 168.193 152.783 155.322 104.88 144.969C63.4099 136.006 28.3101 124.473 0 110.367ZM0 125.554V118.392C26.4695 131.953 58.6863 143.576 96.3278 153.251C143.794 165.452 182.789 179.844 212.524 197.009C216.476 199.29 220.264 201.62 223.886 204H193.928C165.895 187.548 130.093 173.071 87.16 160.143C53.5083 150.01 24.3804 138.472 0 125.554ZM0 126.119V132.867C22.0255 144.964 47.785 156.14 77.1248 166.372C110.669 178.07 139.699 190.547 163.889 204H192.938C165.062 187.754 129.553 173.431 87.0159 160.622C53.4604 150.517 24.3765 139.011 0 126.119ZM0 139.654V133.437C22.0088 145.504 47.7162 156.646 76.9602 166.844C110.125 178.41 138.86 190.732 162.858 204H136.481C116.121 192.642 92.6983 181.742 66.3812 171.208C41.5372 161.263 19.3776 150.739 0 139.654ZM0 140.229V145.797C16.4236 155.631 34.7699 165.167 54.9838 174.392C76.237 184.09 95.5151 193.944 112.721 204H135.453C115.301 192.813 92.1623 182.066 66.1954 171.672C41.4471 161.766 19.3478 151.279 0 140.229ZM0 151.178V146.379C16.3803 156.173 34.6584 165.666 54.7762 174.846C75.7147 184.402 94.729 194.105 111.728 204H92.8489C77.7963 194.489 61.1613 185.051 43.0106 175.655C27.5034 167.629 13.1578 159.467 0 151.178ZM0 151.768V155.675C9.58414 162.06 19.7759 168.411 30.5656 174.723C47.2888 184.506 62.6496 194.258 76.5902 204H91.9117C77.0512 194.642 60.6534 185.351 42.7808 176.099C27.3703 168.123 13.1008 160.01 0 151.768ZM0 187.353V156.276C9.51355 162.606 19.6212 168.9 30.3132 175.155C46.7933 184.796 61.9458 194.404 75.7165 204H24.3352C20.5727 201.387 16.7307 198.768 12.8098 196.142C8.43583 193.213 4.16566 190.284 0 187.353ZM0 204V187.964C4.078 190.83 8.25544 193.694 12.5316 196.558C16.2449 199.044 19.8873 201.525 23.4581 204H0Z" fill="#E5EEFF"/>
</svg>
