<svg width="18" height="17" viewBox="0 0 18 17" fill="none" xmlns="http://www.w3.org/2000/svg">
<path d="M9 1C7.01088 1 5.10322 1.79018 3.6967 3.1967C2.29018 4.60322 1.5 6.51088 1.5 8.5C1.5 10.4891 2.29018 12.3968 3.6967 13.8033C5.10322 15.2098 7.01088 16 9 16C10.9891 16 12.8968 15.2098 14.3033 13.8033C15.7098 12.3968 16.5 10.4891 16.5 8.5C16.5 6.51088 15.7098 4.60322 14.3033 3.1967C12.8968 1.79018 10.9891 1 9 1ZM0.5 8.5C0.5 6.24566 1.39553 4.08365 2.98959 2.48959C4.58365 0.895533 6.74566 0 9 0C11.2543 0 13.4163 0.895533 15.0104 2.48959C16.6045 4.08365 17.5 6.24566 17.5 8.5C17.5 10.7543 16.6045 12.9163 15.0104 14.5104C13.4163 16.1045 11.2543 17 9 17C6.74566 17 4.58365 16.1045 2.98959 14.5104C1.39553 12.9163 0.5 10.7543 0.5 8.5ZM9 4C9.13261 4 9.25979 4.05268 9.35355 4.14645C9.44732 4.24021 9.5 4.36739 9.5 4.5V8.293L11.354 10.146C11.4479 10.2399 11.5006 10.3672 11.5006 10.5C11.5006 10.6328 11.4479 10.7601 11.354 10.854C11.2601 10.9479 11.1328 11.0006 11 11.0006C10.8672 11.0006 10.7399 10.9479 10.646 10.854L8.646 8.854C8.5996 8.80748 8.56282 8.75227 8.53777 8.69153C8.51272 8.63079 8.49988 8.56571 8.5 8.5V4.5C8.5 4.36739 8.55268 4.24021 8.64645 4.14645C8.74021 4.05268 8.86739 4 9 4Z" fill="#60635E"/>
</svg>
